<?xml version="1.0" encoding="UTF-8" standalone="no"?>
<!-- Created with Inkscape (http://www.inkscape.org/) -->

<svg
   xmlns:dc="http://purl.org/dc/elements/1.1/"
   xmlns:cc="http://creativecommons.org/ns#"
   xmlns:rdf="http://www.w3.org/1999/02/22-rdf-syntax-ns#"
   xmlns:svg="http://www.w3.org/2000/svg"
   xmlns="http://www.w3.org/2000/svg"
   xmlns:sodipodi="http://sodipodi.sourceforge.net/DTD/sodipodi-0.dtd"
   xmlns:inkscape="http://www.inkscape.org/namespaces/inkscape"
   width="93.475624"
   height="85.039368"
   id="svg6902"
   version="1.1"
   inkscape:version="0.48.2 r9819"
   sodipodi:docname="New document 11">
  <defs
     id="defs6904">
    <clipPath
       clipPathUnits="userSpaceOnUse"
       id="clipPath3592">
      <path
         inkscape:connector-curvature="0"
         d="M 38.9664,48.4704 L 484.0416,48.4704 L 484.0416,87.0336 L 38.9664,87.0336 L 38.9664,48.4704 z"
         id="path3594" />
    </clipPath>
    <clipPath
       clipPathUnits="userSpaceOnUse"
       id="clipPath3772">
      <path
         inkscape:connector-curvature="0"
         d="M 38.9664,48.4704 L 484.0416,48.4704 L 484.0416,87.0336 L 38.9664,87.0336 L 38.9664,48.4704 z"
         id="path3774" />
    </clipPath>
    <clipPath
       clipPathUnits="userSpaceOnUse"
       id="clipPath3408">
      <path
         inkscape:connector-curvature="0"
         d="M 38.9664,174.4704 L 484.0416,174.4704 L 484.0416,213.0336 L 38.9664,213.0336 L 38.9664,174.4704 z"
         id="path3410" />
    </clipPath>
    <clipPath
       clipPathUnits="userSpaceOnUse"
       id="clipPath3580">
      <path
         inkscape:connector-curvature="0"
         d="M 38.9664,174.4704 L 484.0416,174.4704 L 484.0416,213.0336 L 38.9664,213.0336 L 38.9664,174.4704 z"
         id="path3582" />
    </clipPath>
    <clipPath
       clipPathUnits="userSpaceOnUse"
       id="clipPath3224">
      <path
         inkscape:connector-curvature="0"
         d="M 38.9664,300.4704 L 484.0416,300.4704 L 484.0416,339.0336 L 38.9664,339.0336 L 38.9664,300.4704 z"
         id="path3226" />
    </clipPath>
    <clipPath
       clipPathUnits="userSpaceOnUse"
       id="clipPath3396">
      <path
         inkscape:connector-curvature="0"
         d="M 38.9664,300.4704 L 484.0416,300.4704 L 484.0416,339.0336 L 38.9664,339.0336 L 38.9664,300.4704 z"
         id="path3398" />
    </clipPath>
    <clipPath
       clipPathUnits="userSpaceOnUse"
       id="clipPath3024">
      <path
         inkscape:connector-curvature="0"
         d="M 38.9664,426.4704 L 484.0416,426.4704 L 484.0416,465.0336 L 38.9664,465.0336 L 38.9664,426.4704 z"
         id="path3026" />
    </clipPath>
    <clipPath
       clipPathUnits="userSpaceOnUse"
       id="clipPath3212">
      <path
         inkscape:connector-curvature="0"
         d="M 38.9664,426.4704 L 484.0416,426.4704 L 484.0416,465.0336 L 38.9664,465.0336 L 38.9664,426.4704 z"
         id="path3214" />
    </clipPath>
  </defs>
  <sodipodi:namedview
     id="base"
     pagecolor="#ffffff"
     bordercolor="#666666"
     borderopacity="1.0"
     inkscape:pageopacity="0.0"
     inkscape:pageshadow="2"
     inkscape:zoom="2.8"
     inkscape:cx="-32.547904"
     inkscape:cy="25.147203"
     inkscape:document-units="px"
     inkscape:current-layer="layer1"
     showgrid="false"
     fit-margin-top="0"
     fit-margin-left="0"
     fit-margin-right="0"
     fit-margin-bottom="0"
     inkscape:window-width="1231"
     inkscape:window-height="756"
     inkscape:window-x="0"
     inkscape:window-y="0"
     inkscape:window-maximized="1"
     units="mm" />
  <metadata
     id="metadata6907">
    <rdf:RDF>
      <cc:Work
         rdf:about="">
        <dc:format>image/svg+xml</dc:format>
        <dc:type
           rdf:resource="http://purl.org/dc/dcmitype/StillImage" />
        <dc:title></dc:title>
      </cc:Work>
    </rdf:RDF>
  </metadata>
  <g
     inkscape:label="Layer 1"
     inkscape:groupmode="layer"
     id="layer1"
     transform="translate(-407.5479,-415.32714)">
    <g
       id="g3208"
       transform="matrix(0.19692424,0,0,-0.19692424,402.40991,518.79137)"
       style="fill:#000000;stroke:#000000;stroke-width:2.53904748;stroke-miterlimit:4;stroke-dasharray:2.53904754, 7.61714261;stroke-dashoffset:0">
      <g
         id="g3210"
         clip-path="url(#clipPath3212)"
         style="fill:#000000;stroke:#000000;stroke-width:2.53904748;stroke-miterlimit:4;stroke-dasharray:2.53904754, 7.61714261;stroke-dashoffset:0">
        <g
           id="g3216"
           transform="matrix(1,0,0,-1,0,504)"
           style="fill:#000000;stroke:#000000;stroke-width:2.53904748;stroke-miterlimit:4;stroke-dasharray:2.53904754, 7.61714261;stroke-dashoffset:0">
          <path
             inkscape:connector-curvature="0"
             d="M 38.9664,76.10132 L 484.0416,76.10132"
             style="fill:#000000;stroke:#000000;stroke-width:2.53904748;stroke-linecap:round;stroke-linejoin:round;stroke-miterlimit:4;stroke-opacity:1;stroke-dasharray:2.53904754, 7.61714261;stroke-dashoffset:0"
             id="path3218" />
        </g>
      </g>
    </g>
    <g
       id="g3020"
       transform="matrix(0.19692424,0,0,-0.19692424,402.40991,518.79137)"
       style="stroke-width:5.07809496;stroke-miterlimit:4;stroke-dasharray:none">
      <g
         id="g3022"
         clip-path="url(#clipPath3024)"
         style="stroke-width:5.07809496;stroke-miterlimit:4;stroke-dasharray:none">
        <g
           id="g3028"
           transform="matrix(1,0,0,-1,0,504)"
           style="stroke-width:5.07809496;stroke-miterlimit:4;stroke-dasharray:none">
          <path
             inkscape:connector-curvature="0"
             d="M 31.20036,43.22177 L 96.3862,40.39465 L 126.7899,41.91168 L 146.8327,45.08228 L 161.8087,47.45734 L 173.7696,48.23877 L 183.7283,48.62997 L 192.26,50.77731 L 199.7229,55.58395 L 206.3551,61.71216 L 212.3232,66.95529 L 217.7483,69.99347 L 222.7208,70.77814 L 227.3106,70.11832 L 231.5724,69.26453 L 235.5499,69.29764 L 239.2787,70.43689 L 242.7881,72.0235 L 246.1025,73.25 L 249.2424,73.78461 L 252.2253,73.78113 L 255.0661,73.59656 L 257.7778,73.58582 L 260.3716,73.94525 L 262.8572,74.58597 L 265.2434,75.20432 L 267.5379,75.53162 L 269.7473,75.50696 L 271.8779,75.26602 L 273.935,75.039 L 275.9235,75.00531 L 277.8478,75.15714 L 279.712,75.3176 L 281.5198,75.3205 L 283.2743,75.12888 L 284.9788,74.7894 L 286.6358,74.3931 L 288.2481,74.11679 L 289.818,74.12076 L 291.3476,74.38818 L 292.839,74.74783 L 294.294,75.04077 L 295.7144,75.22894 L 297.1017,75.37717 L 298.4575,75.55408 L 299.7831,75.75491 L 301.08,75.92441 L 302.3492,76.02328 L 303.592,76.04587 L 304.8095,75.99332 L 306.0026,75.86633 L 307.1723,75.69675 L 308.3195,75.56149 L 309.4451,75.52393 L 310.5498,75.55719 L 311.6345,75.5575 L 312.6997,75.44366 L 313.7463,75.22418 L 314.7749,74.97861 L 315.786,74.81302 L 316.7802,74.82513 L 317.7582,75.0473 L 318.7204,75.39807 L 319.6673,75.7301 L 320.5994,75.94156 L 321.5172,76.01889 L 322.4211,75.98853 L 323.3115,75.87378 L 324.1888,75.7117 L 325.0533,75.58118 L 325.9055,75.56784 L 326.7458,75.68445 L 327.5743,75.85309 L 328.3915,75.97916 L 329.1977,76.01993 L 329.9931,75.96606 L 330.778,75.82596 L 331.5528,75.6507 L 332.3176,75.52991 L 333.0728,75.51172 L 333.8185,75.54553 L 334.5549,75.55106 L 335.2824,75.52655 L 336.0012,75.54422 L 336.7114,75.65002 L 337.4132,75.80948 L 338.1069,75.95331 L 338.7926,76.04303 L 339.4705,76.08365 L 340.1408,76.09723 L 340.8036,76.10062 L 341.4592,76.10123 L 342.1077,76.10132 L 342.7491,76.10132 L 343.3838,76.10132 L 344.0117,76.10132 L 344.6331,76.10132 L 345.2482,76.10132 L 345.8569,76.10132 L 346.4595,76.10132"
             style="fill:none;stroke:#000000;stroke-width:5.07809496;stroke-linecap:round;stroke-linejoin:round;stroke-miterlimit:4;stroke-opacity:1;stroke-dasharray:none"
             id="path3030" />
        </g>
        <g
           id="g3032"
           transform="matrix(1,0,0,-1,0,504)"
           style="stroke-width:5.07809496;stroke-miterlimit:4;stroke-dasharray:none">
          <path
             inkscape:connector-curvature="0"
             d="M 346.4595,76.10132 L 347.0561,76.10132 L 347.6467,76.10132 L 348.2316,76.10132 L 348.8108,76.10132 L 349.3844,76.10132 L 349.9525,76.10132 L 350.5153,76.10132 L 351.0729,76.10132 L 351.6252,76.10132 L 352.1725,76.10132 L 352.7149,76.10132 L 353.2523,76.10132 L 353.785,76.10132 L 354.3129,76.10132 L 354.8362,76.10132 L 355.355,76.10132 L 355.8693,76.10132 L 356.3791,76.10132 L 356.8847,76.10132 L 357.386,76.10132 L 357.8831,76.10132 L 358.3762,76.10132 L 358.8652,76.10132 L 359.3502,76.10132 L 359.8313,76.10132 L 360.3085,76.10132 L 360.782,76.10132 L 361.2517,76.10132 L 361.7178,76.1012 L 362.1803,76.10034 L 362.6392,76.09592 L 363.0946,76.07843 L 363.5465,76.02765 L 363.9951,75.91968 L 364.4402,75.75757 L 364.8822,75.6026 L 365.3208,75.54944 L 365.7563,75.63855 L 366.1886,75.80914 L 366.6177,75.9631 L 367.0439,76.05249 L 367.467,76.08847 L 367.8871,76.09882 L 368.3043,76.10095 L 368.7186,76.10129 L 369.13,76.10132 L 369.5386,76.10132 L 369.9444,76.10132 L 370.3475,76.10132 L 370.7479,76.10132 L 371.1456,76.10132 L 371.5407,76.10132 L 371.9332,76.10132 L 372.3231,76.10132 L 372.7104,76.10132 L 373.0953,76.10132 L 373.4778,76.10132 L 373.8577,76.10132 L 374.2353,76.10132 L 374.6105,76.10132 L 374.9834,76.10132 L 375.3539,76.10132 L 375.7222,76.10132 L 376.0882,76.10132 L 376.4519,76.10132 L 376.8135,76.10132 L 377.1729,76.10132 L 377.5301,76.10132 L 377.8852,76.10132 L 378.2382,76.10132 L 378.5891,76.10132 L 378.938,76.10132 L 379.2849,76.10132 L 379.6297,76.10132 L 379.9725,76.10132 L 380.3134,76.10132 L 380.6524,76.10132 L 380.9894,76.10132 L 381.3246,76.10132 L 381.6579,76.10132 L 381.9893,76.10132 L 382.3189,76.10132 L 382.6467,76.10132 L 382.9727,76.10132 L 383.2969,76.10132 L 383.6194,76.10132 L 383.9401,76.10132 L 384.2591,76.10132 L 384.5765,76.10132 L 384.8921,76.10132 L 385.2061,76.10132 L 385.5184,76.10132 L 385.8292,76.10132 L 386.1382,76.10132 L 386.4458,76.10132 L 386.7517,76.10132 L 387.0561,76.10132 L 387.3589,76.10132 L 387.6602,76.10132 L 387.96,76.10132"
             style="fill:none;stroke:#000000;stroke-width:5.07809496;stroke-linecap:round;stroke-linejoin:round;stroke-miterlimit:4;stroke-opacity:1;stroke-dasharray:none"
             id="path3034" />
        </g>
        <g
           id="g3036"
           transform="matrix(1,0,0,-1,0,504)"
           style="stroke-width:5.07809496;stroke-miterlimit:4;stroke-dasharray:none">
          <path
             inkscape:connector-curvature="0"
             d="M 387.96,76.10132 L 388.2583,76.10132 L 388.5551,76.10132 L 388.8504,76.10132 L 389.1443,76.10132 L 389.4367,76.10132 L 389.7278,76.10132 L 390.0173,76.10132 L 390.3055,76.10132 L 390.5923,76.10132 L 390.8778,76.10132 L 391.1619,76.10132 L 391.4446,76.10132 L 391.726,76.10132 L 392.0061,76.10132 L 392.2849,76.10132 L 392.5623,76.10132 L 392.8385,76.10132 L 393.1135,76.10132 L 393.3871,76.10132 L 393.6595,76.10132 L 393.9307,76.10132 L 394.2007,76.10132 L 394.4694,76.10132 L 394.7369,76.10132 L 395.0032,76.10132 L 395.2684,76.10132 L 395.5323,76.10132 L 395.7951,76.10132 L 396.0568,76.10132 L 396.3173,76.10132 L 396.5767,76.10132 L 396.835,76.10132 L 397.0921,76.10132 L 397.3481,76.10132 L 397.6031,76.10132 L 397.8569,76.10132 L 398.1097,76.10132 L 398.3615,76.10132 L 398.6121,76.10132 L 398.8617,76.10132 L 399.1103,76.10132 L 399.3578,76.10132 L 399.6044,76.10132 L 399.8499,76.10132 L 400.0944,76.10132 L 400.3379,76.10132 L 400.5804,76.10132 L 400.8219,76.10132 L 401.0624,76.10132 L 401.302,76.10132 L 401.5407,76.10132 L 401.7784,76.10132 L 402.0151,76.10132 L 402.2509,76.10132 L 402.4857,76.10132 L 402.7197,76.10132 L 402.9528,76.10132 L 403.1849,76.10132 L 403.4161,76.10132 L 403.6465,76.10132 L 403.8759,76.10132 L 404.1045,76.10132 L 404.3322,76.10132 L 404.559,76.10132 L 404.785,76.10132 L 405.0101,76.10132 L 405.2344,76.10132 L 405.4578,76.10132 L 405.6804,76.10132 L 405.9022,76.10132 L 406.1232,76.10132 L 406.3433,76.10132 L 406.5626,76.10132 L 406.7812,76.10132 L 406.9989,76.10132 L 407.2158,76.10132 L 407.432,76.10132 L 407.6473,76.10132 L 407.8619,76.10132 L 408.0757,76.10132 L 408.2888,76.10132 L 408.5011,76.10132 L 408.7127,76.10132 L 408.9235,76.10132 L 409.1335,76.10132 L 409.3429,76.10132 L 409.5515,76.10132 L 409.7593,76.10132 L 409.9665,76.10132 L 410.1729,76.10132 L 410.3786,76.10132 L 410.5836,76.10132 L 410.7879,76.10132 L 410.9915,76.10132 L 411.1945,76.10132 L 411.3967,76.10132 L 411.5982,76.10132 L 411.7991,76.10132 L 411.9993,76.10132 L 412.1988,76.10132"
             style="fill:none;stroke:#000000;stroke-width:5.07809496;stroke-linecap:round;stroke-linejoin:round;stroke-miterlimit:4;stroke-opacity:1;stroke-dasharray:none"
             id="path3038" />
        </g>
        <g
           id="g3040"
           transform="matrix(1,0,0,-1,0,504)"
           style="stroke-width:5.07809496;stroke-miterlimit:4;stroke-dasharray:none">
          <path
             inkscape:connector-curvature="0"
             d="M 412.1988,76.10132 L 412.3977,76.10132 L 412.5959,76.10132 L 412.7934,76.10132 L 412.9903,76.10132 L 413.1866,76.10132 L 413.3821,76.10132 L 413.5771,76.10132 L 413.7715,76.10132 L 413.9651,76.10132 L 414.1582,76.10132 L 414.3506,76.10132 L 414.5425,76.10132 L 414.7337,76.10132 L 414.9243,76.10132 L 415.1143,76.10132 L 415.3036,76.10132 L 415.4925,76.10132 L 415.6807,76.10132 L 415.8683,76.10132 L 416.0553,76.10132 L 416.2417,76.10132 L 416.4276,76.10132 L 416.6128,76.10132 L 416.7975,76.10132 L 416.9817,76.10132 L 417.1652,76.10132 L 417.3482,76.10132 L 417.5306,76.10132 L 417.7125,76.10132 L 417.8939,76.10132 L 418.0746,76.10132 L 418.2549,76.10132 L 418.4346,76.10132 L 418.6137,76.10132 L 418.7923,76.10132 L 418.9704,76.10132 L 419.148,76.10132 L 419.325,76.10132 L 419.5015,76.10132 L 419.6775,76.10132 L 419.8529,76.10132 L 420.0279,76.10132 L 420.2023,76.10132 L 420.3763,76.10132 L 420.5497,76.10132 L 420.7226,76.10132 L 420.895,76.10132 L 421.067,76.10132 L 421.2384,76.10132 L 421.4093,76.10132 L 421.5798,76.10132 L 421.7498,76.10132 L 421.9192,76.10132 L 422.0882,76.10132 L 422.2567,76.10132 L 422.4248,76.10132 L 422.5924,76.10132 L 422.7595,76.10132 L 422.9261,76.10132 L 423.0923,76.10132 L 423.258,76.10132 L 423.4233,76.10132 L 423.5881,76.10132 L 423.7524,76.10132 L 423.9163,76.10132 L 424.0798,76.10132 L 424.2428,76.10132 L 424.4053,76.10132 L 424.5674,76.10132 L 424.7291,76.10132 L 424.8904,76.10132 L 425.0511,76.10132 L 425.2115,76.10132 L 425.3715,76.10132 L 425.531,76.10132 L 425.6901,76.10132 L 425.8487,76.10132 L 426.007,76.10132 L 426.1648,76.10132 L 426.3222,76.10132 L 426.4792,76.10132 L 426.6358,76.10132 L 426.792,76.10132 L 426.9477,76.10132 L 427.1031,76.10132 L 427.258,76.10132 L 427.4126,76.10132 L 427.5667,76.10132 L 427.7205,76.10132 L 427.8739,76.10132 L 428.0268,76.10132 L 428.1794,76.10132 L 428.3316,76.10132 L 428.4834,76.10132 L 428.6348,76.10132 L 428.7859,76.10132 L 428.9365,76.10132 L 429.0868,76.10132 L 429.2367,76.10132 L 429.3862,76.10132"
             style="fill:none;stroke:#000000;stroke-width:5.07809496;stroke-linecap:round;stroke-linejoin:round;stroke-miterlimit:4;stroke-opacity:1;stroke-dasharray:none"
             id="path3042" />
        </g>
        <g
           id="g3044"
           transform="matrix(1,0,0,-1,0,504)"
           style="stroke-width:5.07809496;stroke-miterlimit:4;stroke-dasharray:none">
          <path
             inkscape:connector-curvature="0"
             d="M 429.3862,76.10132 L 429.5353,76.10132 L 429.6841,76.10132 L 429.8325,76.10132 L 429.9805,76.10132 L 430.1282,76.10132 L 430.2755,76.10132 L 430.4225,76.10132 L 430.569,76.10132 L 430.7153,76.10132 L 430.8611,76.10132 L 431.0066,76.10132 L 431.1518,76.10132 L 431.2966,76.10132 L 431.441,76.10132 L 431.5851,76.10132 L 431.7289,76.10132 L 431.8723,76.10132 L 432.0154,76.10132 L 432.1581,76.10132 L 432.3005,76.10132 L 432.4425,76.10132 L 432.5842,76.10132 L 432.7256,76.10132 L 432.8666,76.10132 L 433.0073,76.10132 L 433.1477,76.10132 L 433.2877,76.10132 L 433.4275,76.10132 L 433.5668,76.10132 L 433.7059,76.10132 L 433.8446,76.10132 L 433.9831,76.10132 L 434.1212,76.10132 L 434.2589,76.10132 L 434.3964,76.10132 L 434.5335,76.10132 L 434.6704,76.10132 L 434.8069,76.10132 L 434.9431,76.10132 L 435.079,76.10132 L 435.2146,76.10132 L 435.3499,76.10132 L 435.4848,76.10132 L 435.6195,76.10132 L 435.7538,76.10132 L 435.8879,76.10132 L 436.0217,76.10132 L 436.1552,76.10132 L 436.2883,76.10132 L 436.4212,76.10132 L 436.5537,76.10132 L 436.686,76.10132 L 436.818,76.10132 L 436.9497,76.10132 L 437.0811,76.10132 L 437.2122,76.10132 L 437.343,76.10132 L 437.4736,76.10132 L 437.6039,76.10132 L 437.7338,76.10132 L 437.8635,76.10132 L 437.993,76.10132 L 438.1221,76.10132 L 438.2509,76.10132 L 438.3795,76.10132 L 438.5078,76.10132 L 438.6358,76.10132 L 438.7635,76.10132 L 438.891,76.10132 L 439.0182,76.10132 L 439.1452,76.10132 L 439.2718,76.10132 L 439.3982,76.10132 L 439.5244,76.10132 L 439.6502,76.10132 L 439.7758,76.10132 L 439.9011,76.10132 L 440.0262,76.10132 L 440.151,76.10132 L 440.2756,76.10132 L 440.3998,76.10132 L 440.5239,76.10132 L 440.6476,76.10132 L 440.7712,76.10132 L 440.8944,76.10132 L 441.0174,76.10132 L 441.1402,76.10132 L 441.2627,76.10132 L 441.3849,76.10132 L 441.5069,76.10132 L 441.6287,76.10132 L 441.7502,76.10129 L 441.8715,76.10095 L 441.9925,76.099 L 442.1132,76.09052 L 442.2337,76.06226 L 442.354,75.99097 L 442.4741,75.85895 L 442.5938,75.69037 L 442.7134,75.56876"
             style="fill:none;stroke:#000000;stroke-width:5.07809496;stroke-linecap:round;stroke-linejoin:round;stroke-miterlimit:4;stroke-opacity:1;stroke-dasharray:none"
             id="path3046" />
        </g>
        <g
           id="g3048"
           transform="matrix(1,0,0,-1,0,504)"
           style="stroke-width:5.07809496;stroke-miterlimit:4;stroke-dasharray:none">
          <path
             inkscape:connector-curvature="0"
             d="M 442.7134,75.56876 L 442.8327,75.57748 L 442.9518,75.70654 L 443.0706,75.87164 L 443.1892,75.99741 L 443.3076,76.06458 L 443.4258,76.09116"
             style="fill:none;stroke:#000000;stroke-width:5.07809496;stroke-linecap:round;stroke-linejoin:round;stroke-miterlimit:4;stroke-opacity:1;stroke-dasharray:none"
             id="path3050" />
        </g>
      </g>
    </g>
    <g
       id="g3392"
       transform="matrix(0.19692424,0,0,-0.19692424,402.40991,505.29137)"
       style="stroke:#000000;stroke-width:2.53904748;stroke-miterlimit:4;stroke-dasharray:2.53904754, 7.61714261;stroke-dashoffset:0">
      <g
         id="g3394"
         clip-path="url(#clipPath3396)"
         style="stroke:#000000;stroke-width:2.53904748;stroke-miterlimit:4;stroke-dasharray:2.53904754, 7.61714261;stroke-dashoffset:0">
        <g
           id="g3400"
           transform="matrix(1,0,0,-1,0,504)"
           style="stroke:#000000;stroke-width:2.53904748;stroke-miterlimit:4;stroke-dasharray:2.53904754, 7.61714261;stroke-dashoffset:0">
          <path
             inkscape:connector-curvature="0"
             d="M 38.9664,202.3072 L 484.0416,202.3072"
             style="fill:none;stroke:#000000;stroke-width:2.53904748;stroke-linecap:round;stroke-linejoin:round;stroke-miterlimit:4;stroke-opacity:1;stroke-dasharray:2.53904754, 7.61714261;stroke-dashoffset:0"
             id="path3402" />
        </g>
      </g>
    </g>
    <g
       id="g3220"
       transform="matrix(0.19692424,0,0,-0.19692424,402.40991,505.29137)"
       style="stroke-width:5.07809496;stroke-miterlimit:4;stroke-dasharray:none">
      <g
         id="g3222"
         clip-path="url(#clipPath3224)"
         style="stroke-width:5.07809496;stroke-miterlimit:4;stroke-dasharray:none">
        <g
           id="g3228"
           transform="matrix(1,0,0,-1,0,504)"
           style="stroke-width:5.07809496;stroke-miterlimit:4;stroke-dasharray:none">
          <path
             inkscape:connector-curvature="0"
             d="M 0,168.7163 L 3.665397,168.6055 L 9.681003,168.4078 L 15.14521,168.2214 L 20.15066,168.0436 L 24.76847,167.8734 L 29.05437,167.7156 L 33.0529,167.5619 L 36.80019,167.4242 L 40.32595,167.2906 L 43.65491,167.1693 L 46.8079,167.0559 L 49.80258,166.9508 L 52.65409,166.8575 L 55.3755,166.7686 L 57.97817,166.6951 L 60.47203,166.6254 L 62.86581,166.5681 L 65.16723,166.5178 L 67.38316,166.4759 L 69.51971,166.4444 L 71.5824,166.4177 L 73.57613,166.4044 L 75.50539,166.3947 L 77.37422,166.3968 L 79.18627,166.4044 L 80.94491,166.4203 L 82.65318,166.4446 L 84.3139,166.4738 L 85.92963,166.5139 L 87.50276,166.5571 L 89.03547,166.6109 L 90.52979,166.6688 L 91.98759,166.734 L 93.41061,166.8057 L 94.80049,166.8817 L 96.15871,166.9663 L 97.48671,167.0532 L 98.78578,167.1489 L 100.0572,167.2474 L 101.302,167.352 L 102.5214,167.4611 L 103.7164,167.5738 L 104.888,167.6924 L 106.0369,167.8129 L 107.1642,167.94 L 108.2705,168.0688 L 109.3567,168.2021 L 110.4235,168.3383 L 111.4715,168.4772 L 112.5014,168.6198 L 113.5139,168.7636 L 114.5095,168.9118 L 115.4887,169.0609 L 116.4521,169.2129 L 117.4002,169.3665 L 118.3335,169.5218 L 119.2524,169.679 L 120.1573,169.8371 L 121.0488,169.9973 L 121.9271,170.1579 L 122.7926,170.3201 L 123.6458,170.4828 L 124.487,170.6463 L 125.3164,170.8105 L 126.1345,170.975 L 126.9415,171.1401 L 127.7378,171.3054 L 128.5235,171.4708 L 129.2991,171.6364 L 130.0647,171.8019 L 130.8206,171.9672 L 131.567,172.1325 L 132.3042,172.2973 L 133.0324,172.462 L 133.7519,172.6261 L 134.4627,172.7899 L 135.1652,172.9531 L 135.8595,173.1156 L 136.5458,173.2777 L 137.2243,173.4389 L 137.8952,173.5997 L 138.5587,173.7593 L 139.2148,173.9185 L 139.8638,174.0765 L 140.5058,174.2338 L 141.141,174.3903 L 141.7695,174.5456 L 142.3914,174.7004 L 143.0069,174.8535 L 143.6161,175.0062 L 144.2192,175.1574 L 144.8162,175.3077 L 145.4073,175.457 L 145.9927,175.6049 L 146.5723,175.7521 L 147.1464,175.8973 L 147.7149,176.042 L 148.2782,176.1849 L 148.8361,176.3267"
             style="fill:none;stroke:#000000;stroke-width:5.07809496;stroke-linecap:round;stroke-linejoin:round;stroke-miterlimit:4;stroke-opacity:1;stroke-dasharray:none"
             id="path3230" />
        </g>
        <g
           id="g3232"
           transform="matrix(1,0,0,-1,0,504)"
           style="stroke-width:5.07809496;stroke-miterlimit:4;stroke-dasharray:none">
          <path
             inkscape:connector-curvature="0"
             d="M 148.8361,176.3267 L 149.3889,176.4672 L 149.9366,176.6061 L 150.4793,176.7441 L 151.0171,176.8798 L 151.5502,177.0148 L 152.0785,177.1475 L 152.6021,177.279 L 153.1212,177.4087 L 153.6359,177.5365 L 154.1461,177.6631 L 154.652,177.787 L 155.1536,177.91 L 155.6511,178.0299 L 156.1445,178.1485 L 156.6338,178.2647 L 157.1191,178.3787 L 157.6005,178.4909 L 158.078,178.5998 L 158.5518,178.7077 L 159.0219,178.8115 L 159.4882,178.9139 L 159.9509,179.013 L 160.4101,179.1096 L 160.8658,179.2039 L 161.318,179.2942 L 161.7668,179.3833 L 162.2123,179.4671 L 162.6544,179.5495 L 163.0934,179.6277 L 163.5291,179.703 L 163.9616,179.7754 L 164.391,179.8434 L 164.8174,179.9097 L 165.2407,179.9699 L 165.6611,180.0287 L 166.0785,180.0823 L 166.493,180.133 L 166.9046,180.18 L 167.3135,180.2224 L 167.7195,180.2627 L 168.1228,180.2967 L 168.5234,180.329 L 168.9213,180.3555 L 169.3166,180.3792 L 169.7093,180.3987 L 170.0994,180.4138 L 170.487,180.4263 L 170.8721,180.4328 L 171.2547,180.4376 L 171.6349,180.4363 L 172.0126,180.4326 L 172.388,180.4246 L 172.7611,180.4126 L 173.1318,180.3979 L 173.5002,180.3779 L 173.8664,180.3564 L 174.2303,180.3292 L 174.5921,180.3002 L 174.9516,180.2671 L 175.309,180.231 L 175.6643,180.1924 L 176.0174,180.1498 L 176.3685,180.106 L 176.7176,180.0576 L 177.0646,180.0081 L 177.4096,179.9555 L 177.7526,179.901 L 178.0936,179.8447 L 178.4327,179.7861 L 178.7699,179.7266 L 179.1052,179.6646 L 179.4387,179.6022 L 179.7702,179.5382 L 180.1,179.4737 L 180.4279,179.4084 L 180.754,179.3428 L 181.0784,179.277 L 181.401,179.2112 L 181.7219,179.1456 L 182.041,179.0807 L 182.3585,179.0164 L 182.6743,178.9531 L 182.9884,178.8912 L 183.3009,178.8301 L 183.6117,178.7717 L 183.9209,178.7141 L 184.2286,178.6598 L 184.5346,178.6071 L 184.8391,178.5574 L 185.1421,178.5107 L 185.4435,178.4662 L 185.7434,178.4266 L 186.0418,178.3885 L 186.3387,178.3564 L 186.6342,178.3268 L 186.9282,178.3021 L 187.2207,178.2817 L 187.5118,178.2649 L 187.8016,178.2548 L 188.0899,178.2468"
             style="fill:none;stroke:#000000;stroke-width:5.07809496;stroke-linecap:round;stroke-linejoin:round;stroke-miterlimit:4;stroke-opacity:1;stroke-dasharray:none"
             id="path3234" />
        </g>
        <g
           id="g3236"
           transform="matrix(1,0,0,-1,0,504)"
           style="stroke-width:5.07809496;stroke-miterlimit:4;stroke-dasharray:none">
          <path
             inkscape:connector-curvature="0"
             d="M 188.0899,178.2468 L 188.3768,178.2476 L 188.6623,178.2509 L 188.9465,178.2613 L 189.2294,178.2767 L 189.5109,178.2971 L 189.7911,178.3253 L 190.0699,178.3561 L 190.3475,178.3977 L 190.6238,178.4419 L 190.8988,178.4947 L 191.1726,178.5529 L 191.4451,178.6171 L 191.7164,178.6895 L 191.9864,178.7653 L 192.2552,178.8522 L 192.5228,178.942 L 192.7893,179.0414 L 193.0545,179.1458 L 193.3186,179.257 L 193.5815,179.3761 L 193.8432,179.4992 L 194.1038,179.6328 L 194.3633,179.7692 L 194.6216,179.9155 L 194.8789,180.0662 L 195.135,180.2239 L 195.39,180.3884 L 195.644,180.5573 L 195.8968,180.7352 L 196.1486,180.9158 L 196.3994,181.1058 L 196.6491,181.299 L 196.8977,181.499 L 197.1454,181.7044 L 197.392,181.9139 L 197.6375,182.1307 L 197.8821,182.3497 L 198.1257,182.5767 L 198.3683,182.806 L 198.6099,183.041 L 198.8505,183.2797 L 199.0902,183.522 L 199.3289,183.7694 L 199.5666,184.0184 L 199.8035,184.2734 L 200.0393,184.5297 L 200.2743,184.7902 L 200.5083,185.0528 L 200.7414,185.3179 L 200.9736,185.586 L 201.2049,185.8551 L 201.4353,186.1274 L 201.6648,186.4005 L 201.8935,186.6756 L 202.1212,186.9515 L 202.3481,187.2286 L 202.5742,187.5066 L 202.7994,187.7849 L 203.0237,188.0638 L 203.2472,188.3428 L 203.4699,188.6217 L 203.6917,188.9004 L 203.9128,189.1786 L 204.133,189.456 L 204.3524,189.7329 L 204.5709,190.0082 L 204.7887,190.2829 L 205.0057,190.5554 L 205.2219,190.8269 L 205.4374,191.0964 L 205.652,191.3639 L 205.8659,191.6298 L 206.079,191.8925 L 206.2914,192.1542 L 206.503,192.4117 L 206.7139,192.6677 L 206.924,192.9203 L 207.1334,193.1701 L 207.342,193.4174 L 207.55,193.6603 L 207.7572,193.902 L 207.9636,194.1378 L 208.1694,194.3719 L 208.3745,194.6015 L 208.5788,194.8279 L 208.7825,195.051 L 208.9855,195.2693 L 209.1878,195.4857 L 209.3894,195.6955 L 209.5903,195.9037 L 209.7905,196.1063 L 209.9901,196.3058 L 210.189,196.5013 L 210.3873,196.692 L 210.5849,196.8804 L 210.7818,197.0621 L 210.9781,197.2422 L 211.1738,197.4161 L 211.3688,197.5872 L 211.5631,197.7539"
             style="fill:none;stroke:#000000;stroke-width:5.07809496;stroke-linecap:round;stroke-linejoin:round;stroke-miterlimit:4;stroke-opacity:1;stroke-dasharray:none"
             id="path3238" />
        </g>
        <g
           id="g3240"
           transform="matrix(1,0,0,-1,0,504)"
           style="stroke-width:5.07809496;stroke-miterlimit:4;stroke-dasharray:none">
          <path
             inkscape:connector-curvature="0"
             d="M 211.5631,197.7539 L 211.7569,197.9161 L 211.95,198.0756 L 212.1425,198.2289 L 212.3344,198.3806 L 212.5256,198.5259 L 212.7163,198.6688 L 212.9063,198.8073 L 213.0957,198.9417 L 213.2846,199.0733 L 213.4728,199.1993 L 213.6605,199.3238 L 213.8475,199.4422 L 214.034,199.5586 L 214.2199,199.6706 L 214.4052,199.7792 L 214.59,199.8851 L 214.7741,199.9861 L 214.9577,200.0858 L 215.1408,200.1798 L 215.3233,200.2723 L 215.5052,200.3607 L 215.6866,200.4464 L 215.8674,200.5294 L 216.0477,200.6085 L 216.2274,200.6862 L 216.4066,200.7592 L 216.5853,200.8309 L 216.7634,200.899 L 216.941,200.9649 L 217.1181,201.0284 L 217.2946,201.0889 L 217.4706,201.148 L 217.6461,201.2033 L 217.8211,201.2577 L 217.9956,201.3088 L 218.1696,201.3584 L 218.343,201.4058 L 218.516,201.451 L 218.6884,201.4949 L 218.8604,201.5359 L 219.0319,201.5761 L 219.2029,201.6136 L 219.3734,201.65 L 219.5434,201.6846 L 219.7129,201.7175 L 219.8819,201.7494 L 220.0505,201.7791 L 220.2186,201.8081 L 220.3862,201.835 L 220.5533,201.8612 L 220.72,201.8858 L 220.8862,201.9093 L 221.052,201.9319 L 221.2173,201.9529 L 221.3821,201.9734 L 221.5465,201.9922 L 221.7104,202.0106 L 221.8739,202.0277 L 222.0369,202.0441 L 222.1995,202.0597 L 222.3617,202.0742 L 222.5234,202.0884 L 222.6846,202.1013"
             style="fill:none;stroke:#000000;stroke-width:5.07809496;stroke-linecap:round;stroke-linejoin:round;stroke-miterlimit:4;stroke-opacity:1;stroke-dasharray:none"
             id="path3242" />
        </g>
      </g>
    </g>
    <g
       id="g3576"
       transform="matrix(0.19692424,0,0,-0.19692424,402.40991,503.29137)"
       style="stroke:#000000;stroke-width:2.53904748;stroke-miterlimit:4;stroke-dasharray:2.53904754, 7.61714261;stroke-dashoffset:0">
      <g
         id="g3578"
         clip-path="url(#clipPath3580)"
         style="stroke:#000000;stroke-width:2.53904748;stroke-miterlimit:4;stroke-dasharray:2.53904754, 7.61714261;stroke-dashoffset:0">
        <g
           id="g3584"
           transform="matrix(1,0,0,-1,0,504)"
           style="stroke:#000000;stroke-width:2.53904748;stroke-miterlimit:4;stroke-dasharray:2.53904754, 7.61714261;stroke-dashoffset:0">
          <path
             inkscape:connector-curvature="0"
             d="M 38.9664,328.1013 L 484.0416,328.1013"
             style="fill:none;stroke:#000000;stroke-width:2.53904748;stroke-linecap:round;stroke-linejoin:round;stroke-miterlimit:4;stroke-opacity:1;stroke-dasharray:2.53904754, 7.61714261;stroke-dashoffset:0"
             id="path3586" />
        </g>
      </g>
    </g>
    <g
       id="g3404"
       transform="matrix(0.19692424,0,0,-0.19692424,402.40991,503.29137)"
       style="stroke-width:5.07809496;stroke-miterlimit:4;stroke-dasharray:none">
      <g
         id="g3406"
         clip-path="url(#clipPath3408)"
         style="stroke-width:5.07809496;stroke-miterlimit:4;stroke-dasharray:none">
        <g
           id="g3412"
           transform="matrix(1,0,0,-1,0,504)"
           style="stroke-width:5.07809496;stroke-miterlimit:4;stroke-dasharray:none">
          <path
             inkscape:connector-curvature="0"
             d="M 66.75973,294.7256 L 139.3374,292.8621 L 171.1254,292.3947 L 191.7528,293.2768 L 207.0514,295.3029 L 219.2167,298.1628 L 229.3166,301.5074 L 237.9516,305.0078 L 245.4934,308.3966 L 252.1878,311.4881 L 258.2063,314.1784 L 263.6729,316.4337 L 268.6804,318.2717 L 273.2998,319.7426 L 277.5872,320.9127 L 281.587,321.8514 L 285.3354,322.6159 L 288.8622,323.2617 L 292.192,323.8231 L 295.3458,324.3162 L 298.3412,324.7475 L 301.1933,325.1188 L 303.9153,325.4312 L 306.5186,325.6873 L 309.0129,325.8914 L 311.4071,326.0489 L 313.709,326.1646 L 315.9253,326.2427 L 318.0622,326.287 L 320.1252,326.3019 L 322.1193,326.2941 L 324.0488,326.2724 L 325.9179,326.2466 L 327.7303,326.2241 L 329.4891,326.206 L 331.1976,326.1871 L 332.8586,326.1583 L 334.4745,326.1115 L 336.0479,326.0441 L 337.5807,325.9624 L 339.0752,325.8815 L 340.5332,325.823 L 341.9564,325.8089 L 343.3464,325.8561 L 344.7048,325.971 L 346.0329,326.1474 L 347.3321,326.3666 L 348.6037,326.6011 L 349.8486,326.8189 L 351.0682,326.9862 L 352.2633,327.0827 L 353.4349,327.0969 L 354.584,327.028 L 355.7113,326.8846 L 356.8177,326.6831 L 357.9041,326.4444 L 358.9709,326.1917 L 360.019,325.9481 L 361.049,325.7348 L 362.0616,325.5694 L 363.0573,325.4653 L 364.0365,325.4305 L 365,325.4672 L 365.9482,325.5714 L 366.8815,325.7332 L 367.8005,325.939 L 368.7055,326.1669 L 369.597,326.3986 L 370.4754,326.6187 L 371.341,326.8156 L 372.1942,326.9832 L 373.0354,327.1207 L 373.865,327.2318 L 374.6831,327.3236 L 375.4902,327.404 L 376.2865,327.4801 L 377.0723,327.5561 L 377.8479,327.6324 L 378.6135,327.7057 L 379.3694,327.7699 L 380.1159,327.818 L 380.8532,327.8422 L 381.5815,327.8392 L 382.3009,327.8093 L 383.0118,327.7556 L 383.7143,327.6842 L 384.4087,327.6032 L 385.095,327.5216 L 385.7736,327.448 L 386.4445,327.3899 L 387.108,327.3528 L 387.7642,327.3401 L 388.4132,327.3532 L 389.0552,327.3911 L 389.6904,327.4509 L 390.3189,327.5279 L 390.9409,327.6157 L 391.5565,327.7068 L 392.1657,327.793 L 392.7688,327.8678"
             style="fill:none;stroke:#000000;stroke-width:5.07809496;stroke-linecap:round;stroke-linejoin:round;stroke-miterlimit:4;stroke-opacity:1;stroke-dasharray:none"
             id="path3414" />
        </g>
        <g
           id="g3416"
           transform="matrix(1,0,0,-1,0,504)"
           style="stroke-width:5.07809496;stroke-miterlimit:4;stroke-dasharray:none">
          <path
             inkscape:connector-curvature="0"
             d="M 392.7688,327.8678 L 393.3659,327.9262 L 393.957,327.965 L 394.5424,327.9821 L 395.122,327.9765 L 395.6961,327.9482 L 396.2647,327.8979 L 396.8279,327.8276 L 397.3859,327.7413 L 397.9387,327.6448 L 398.4865,327.5457 L 399.0292,327.4529 L 399.567,327.3755 L 400.1001,327.3215 L 400.6284,327.2975 L 401.1521,327.3071 L 401.6712,327.3476 L 402.1859,327.4144 L 402.6961,327.5006 L 403.2021,327.5978 L 403.7037,327.6972 L 404.2012,327.7914 L 404.6946,327.8744 L 405.1839,327.9431 L 405.6693,327.9964 L 406.1507,328.0353 L 406.6282,328.062 L 407.102,328.0791 L 407.5721,328.0895 L 408.0385,328.0954 L 408.5012,328.0985 L 408.9604,328.1 L 409.4161,328.1007 L 409.8683,328.101 L 410.3171,328.101 L 410.7626,328.1006 L 411.2048,328.0998 L 411.6437,328.0981 L 412.0794,328.0946 L 412.512,328.0884 L 412.9414,328.0777 L 413.3678,328.0606 L 413.7912,328.0348 L 414.2115,327.9987 L 414.629,327.9512 L 415.0435,327.8933 L 415.4551,327.8283 L 415.864,327.7624 L 416.2701,327.7043 L 416.6734,327.6619 L 417.074,327.6415 L 417.4719,327.6463 L 417.8672,327.6752 L 418.2599,327.7237 L 418.65,327.7846 L 419.0376,327.85 L 419.4227,327.9127 L 419.8053,327.9675 L 420.1855,328.0117 L 420.5633,328.0446 L 420.9387,328.0673 L 421.3117,328.0818 L 421.6825,328.0899 L 422.0509,328.0933 L 422.4171,328.0927 L 422.781,328.088 L 423.1428,328.0784 L 423.5023,328.0621 L 423.8598,328.0372 L 424.215,328.0019 L 424.5682,327.9556 L 424.9193,327.8993 L 425.2683,327.8361 L 425.6154,327.7717 L 425.9604,327.7133 L 426.3034,327.6687 L 426.6444,327.6447 L 426.9836,327.645 L 427.3208,327.67 L 427.6561,327.7163 L 427.9895,327.7763 L 428.3211,327.8409 L 428.6508,327.9024 L 428.9788,327.9549 L 429.3049,327.9945 L 429.6293,328.0191 L 429.9519,328.0277 L 430.2728,328.0201 L 430.592,327.9964 L 430.9095,327.9576 L 431.2252,327.9059 L 431.5394,327.8449 L 431.8518,327.7807 L 432.1627,327.7206 L 432.4719,327.6728 L 432.7796,327.645 L 433.0856,327.643 L 433.3901,327.6658 L 433.6931,327.7095 L 433.9945,327.7675 L 434.2944,327.8319"
             style="fill:none;stroke:#000000;stroke-width:5.07809496;stroke-linecap:round;stroke-linejoin:round;stroke-miterlimit:4;stroke-opacity:1;stroke-dasharray:none"
             id="path3418" />
        </g>
        <g
           id="g3420"
           transform="matrix(1,0,0,-1,0,504)"
           style="stroke-width:5.07809496;stroke-miterlimit:4;stroke-dasharray:none">
          <path
             inkscape:connector-curvature="0"
             d="M 434.2944,327.8319 L 434.5928,327.8953 L 434.8898,327.952 L 435.1852,327.9985 L 435.4792,328.0335 L 435.7718,328.0573 L 436.0629,328.0706 L 436.3526,328.0747 L 436.6409,328.0698 L 436.9279,328.0555 L 437.2134,328.0309 L 437.4976,327.9947 L 437.7805,327.946 L 438.062,327.8872 L 438.3422,327.8224 L 438.6211,327.758 L 438.8987,327.7018 L 439.175,327.6615 L 439.45,327.6431 L 439.7237,327.6495 L 439.9962,327.6796 L 440.2675,327.7288 L 440.5376,327.79 L 440.8064,327.8553 L 441.074,327.9177 L 441.3405,327.9719 L 441.6057,328.0153 L 441.8698,328.0474 L 442.1327,328.0691 L 442.3944,328.083 L 442.655,328.0915 L 442.9145,328.0963 L 443.1729,328.0989 L 443.4301,328.1002 L 443.6862,328.1009 L 443.9413,328.1011 L 444.1952,328.1013 L 444.4481,328.1013 L 444.6999,328.1013 L 444.9506,328.1013 L 445.2003,328.1013 L 445.449,328.1013 L 445.6966,328.1013 L 445.9432,328.1013 L 446.1888,328.1013 L 446.4334,328.1013 L 446.677,328.1013 L 446.9196,328.1013 L 447.1612,328.1013 L 447.4018,328.1013 L 447.6415,328.1013 L 447.8802,328.1013 L 448.118,328.1013 L 448.3548,328.1013 L 448.5906,328.1013 L 448.8256,328.1013 L 449.0596,328.1013 L 449.2928,328.1013 L 449.5249,328.1013 L 449.7563,328.1013 L 449.9867,328.1013 L 450.2162,328.1013 L 450.4448,328.1013 L 450.6726,328.1013 L 450.8995,328.1013 L 451.1256,328.1013 L 451.3508,328.1013 L 451.5751,328.1013 L 451.7986,328.1013 L 452.0213,328.1013 L 452.2431,328.1013 L 452.4641,328.1013 L 452.6844,328.1013 L 452.9037,328.1013 L 453.1223,328.1013 L 453.3401,328.1013 L 453.5572,328.1013 L 453.7734,328.1013 L 453.9888,328.1013 L 454.2035,328.1013 L 454.4174,328.1013 L 454.6305,328.1013 L 454.8428,328.1013 L 455.0545,328.1013 L 455.2653,328.1013 L 455.4755,328.1013 L 455.6848,328.1013 L 455.8935,328.1013 L 456.1014,328.1013 L 456.3086,328.1013 L 456.5151,328.1013 L 456.7209,328.1013 L 456.926,328.1013 L 457.1303,328.1013 L 457.334,328.1013 L 457.537,328.1013 L 457.7393,328.1013 L 457.9409,328.1013 L 458.1418,328.1013 L 458.342,328.1013 L 458.5416,328.1013"
             style="fill:none;stroke:#000000;stroke-width:5.07809496;stroke-linecap:round;stroke-linejoin:round;stroke-miterlimit:4;stroke-opacity:1;stroke-dasharray:none"
             id="path3422" />
        </g>
        <g
           id="g3424"
           transform="matrix(1,0,0,-1,0,504)"
           style="stroke-width:5.07809496;stroke-miterlimit:4;stroke-dasharray:none">
          <path
             inkscape:connector-curvature="0"
             d="M 458.5416,328.1013 L 458.7405,328.1013 L 458.9388,328.1013 L 459.1364,328.1013 L 459.3333,328.1013 L 459.5296,328.1013 L 459.7253,328.1013 L 459.9203,328.1013 L 460.1147,328.1013 L 460.3084,328.1013 L 460.5015,328.1013 L 460.694,328.1013 L 460.8859,328.1013 L 461.0771,328.1013 L 461.2678,328.1013 L 461.4579,328.1013 L 461.6473,328.1013 L 461.8361,328.1013 L 462.0244,328.1013 L 462.212,328.1011 L 462.3991,328.1008 L 462.5856,328.1001 L 462.7715,328.0987 L 462.9568,328.096 L 463.1415,328.0909 L 463.3257,328.082 L 463.5093,328.0668 L 463.6924,328.0435 L 463.8748,328.0099 L 464.0568,327.9651 L 464.2382,327.9097 L 464.419,327.8465 L 464.5993,327.7811 L 464.779,327.7207 L 464.9582,327.6732 L 465.1369,327.6456 L 465.315,327.6423 L 465.4926,327.6639 L 465.6696,327.7073 L 465.8462,327.7659 L 466.0222,327.8317 L 466.1977,327.8968 L 466.3727,327.9543 L 466.5472,328.0012 L 466.7212,328.0367 L 466.8947,328.0618 L 467.0676,328.0785 L 467.2401,328.0888 L 467.412,328.0949 L 467.5835,328.0982 L 467.7545,328.0999 L 467.925,328.1007 L 468.095,328.1011 L 468.2645,328.1012 L 468.4336,328.1013 L 468.6021,328.1013 L 468.7702,328.1013 L 468.9378,328.1013 L 469.105,328.1013 L 469.2717,328.1013 L 469.4379,328.1013 L 469.6036,328.1013 L 469.7689,328.1013 L 469.9337,328.1013 L 470.0981,328.1013 L 470.2621,328.1013 L 470.4256,328.1013 L 470.5886,328.1013 L 470.7512,328.1013 L 470.9133,328.1013 L 471.075,328.1013 L 471.2363,328.1013 L 471.3972,328.1013 L 471.5576,328.1013 L 471.7176,328.1013 L 471.8771,328.1013 L 472.0362,328.1013 L 472.1949,328.1013 L 472.3532,328.1013 L 472.511,328.1013 L 472.6685,328.1013 L 472.8255,328.1013 L 472.9821,328.1013 L 473.1384,328.1013 L 473.2942,328.1013 L 473.4496,328.1013 L 473.6045,328.1013 L 473.7591,328.1013 L 473.9133,328.1013 L 474.0671,328.1013 L 474.2205,328.1013 L 474.3735,328.1013 L 474.5261,328.1013 L 474.6783,328.1013 L 474.8302,328.1013 L 474.9816,328.1013 L 475.1327,328.1013 L 475.2834,328.1013 L 475.4337,328.1013 L 475.5836,328.1013 L 475.7331,328.1013"
             style="fill:none;stroke:#000000;stroke-width:5.07809496;stroke-linecap:round;stroke-linejoin:round;stroke-miterlimit:4;stroke-opacity:1;stroke-dasharray:none"
             id="path3426" />
        </g>
        <g
           id="g3428"
           transform="matrix(1,0,0,-1,0,504)"
           style="stroke-width:5.07809496;stroke-miterlimit:4;stroke-dasharray:none">
          <path
             inkscape:connector-curvature="0"
             d="M 475.7331,328.1013 L 475.8823,328.1013 L 476.0311,328.1013 L 476.1796,328.1013 L 476.3276,328.1013 L 476.4753,328.1013 L 476.6227,328.1013 L 476.7696,328.1013 L 476.9162,328.1013 L 477.0625,328.1013 L 477.2084,328.1013 L 477.3539,328.1013 L 477.4991,328.1013 L 477.6439,328.1013 L 477.7884,328.1013 L 477.9325,328.1013 L 478.0763,328.1013 L 478.2198,328.1013 L 478.3629,328.1013 L 478.5056,328.1013 L 478.648,328.1013 L 478.7901,328.1013 L 478.9318,328.1013 L 479.0732,328.1013 L 479.2143,328.1013 L 479.355,328.1013 L 479.4954,328.1013 L 479.6355,328.1013 L 479.7752,328.1013 L 479.9146,328.1013 L 480.0537,328.1013 L 480.1925,328.1013 L 480.3309,328.1013 L 480.4691,328.1013 L 480.6068,328.1013 L 480.7444,328.1013 L 480.8815,328.1013 L 481.0184,328.1013 L 481.1549,328.1013 L 481.2911,328.1013 L 481.4271,328.1013 L 481.5627,328.1013 L 481.698,328.1013 L 481.833,328.1013 L 481.9677,328.1013 L 482.1021,328.1013 L 482.2361,328.1013 L 482.3699,328.1013 L 482.5034,328.1013 L 482.6366,328.1013 L 482.7695,328.1013 L 482.9021,328.1013 L 483.0344,328.1013 L 483.1664,328.1013 L 483.2982,328.1013 L 483.4296,328.1013 L 483.5607,328.1013 L 483.6916,328.1013 L 483.8221,328.1013 L 483.9524,328.1013 L 484.0824,328.1013 L 484.2121,328.1013 L 484.3416,328.1013 L 484.4707,328.1013 L 484.5996,328.1013 L 484.7282,328.1013 L 484.8565,328.1013 L 484.9846,328.1013 L 485.1123,328.1013 L 485.2398,328.1012 L 485.367,328.1011 L 485.494,328.1007 L 485.6207,328.0999 L 485.7471,328.0982 L 485.8733,328.0948 L 485.9991,328.0887 L 486.1248,328.0782 L 486.2501,328.0613 L 486.3752,328.0359 L 486.5,328.0002 L 486.6246,327.9535 L 486.7489,327.8968 L 486.873,327.8334 L 486.9967,327.7689 L 487.1203,327.7106 L 487.2436,327.6664 L 487.3666,327.643 L 487.4893,327.6447 L 487.6119,327.6722 L 487.7342,327.7197 L 487.8562,327.7798 L 487.9779,327.8448 L 488.0995,327.9074 L 488.2208,327.9625 L 488.3418,328.0072 L 488.4626,328.0409 L 488.5831,328.0647 L 488.7034,328.0804 L 488.8235,328.09 L 488.9433,328.0956"
             style="fill:none;stroke:#000000;stroke-width:5.07809496;stroke-linecap:round;stroke-linejoin:round;stroke-miterlimit:4;stroke-opacity:1;stroke-dasharray:none"
             id="path3430" />
        </g>
      </g>
    </g>
    <g
       id="g3768"
       transform="matrix(0.19692424,0,0,-0.19692424,402.40991,490.29137)"
       style="stroke:#000000;stroke-width:2.53904748;stroke-miterlimit:4;stroke-dasharray:2.53904754, 7.61714261;stroke-dashoffset:0">
      <g
         id="g3770"
         clip-path="url(#clipPath3772)"
         style="stroke:#000000;stroke-width:2.53904748;stroke-miterlimit:4;stroke-dasharray:2.53904754, 7.61714261;stroke-dashoffset:0">
        <g
           id="g3776"
           transform="matrix(1,0,0,-1,0,504)"
           style="stroke:#000000;stroke-width:2.53904748;stroke-miterlimit:4;stroke-dasharray:2.53904754, 7.61714261;stroke-dashoffset:0">
          <path
             inkscape:connector-curvature="0"
             d="M 38.9664,454.1013 L 484.0416,454.1013"
             style="fill:none;stroke:#000000;stroke-width:2.53904748;stroke-linecap:round;stroke-linejoin:round;stroke-miterlimit:4;stroke-opacity:1;stroke-dasharray:2.53904754, 7.61714261;stroke-dashoffset:0"
             id="path3778" />
        </g>
      </g>
    </g>
    <g
       id="g3588"
       transform="matrix(0.19692424,0,0,-0.19692424,402.40991,490.29137)"
       style="stroke-width:5.07809496;stroke-miterlimit:4;stroke-dasharray:none">
      <g
         id="g3590"
         clip-path="url(#clipPath3592)"
         style="stroke-width:5.07809496;stroke-miterlimit:4;stroke-dasharray:none">
        <g
           id="g3596"
           transform="matrix(1,0,0,-1,0,504)"
           style="stroke-width:5.07809496;stroke-miterlimit:4;stroke-dasharray:none">
          <path
             inkscape:connector-curvature="0"
             d="M 60.78608,419.6703 L 109.3115,419.25 L 135.7124,418.9047 L 153.9508,418.6425 L 167.8994,418.4825 L 179.1969,418.4001 L 188.6918,418.3947 L 196.881,418.4655 L 204.0805,418.633 L 210.5041,418.8792 L 216.3027,419.1938 L 221.5873,419.5741 L 226.4417,420.0237 L 230.9306,420.5468 L 235.1052,421.1212 L 239.0068,421.7431 L 242.6688,422.4085 L 246.1189,423.123 L 249.3804,423.87 L 252.4727,424.6421 L 255.4127,425.4353 L 258.2145,426.2464 L 260.8907,427.0689 L 263.4519,427.8949 L 265.9077,428.7205 L 268.2664,429.5423 L 270.5353,430.3517 L 272.7212,431.1463 L 274.8297,431.924 L 276.8663,432.6823 L 278.8356,433.4151 L 280.742,434.1166 L 282.5894,434.7912 L 284.3813,435.4377 L 286.1209,436.0553 L 287.8112,436.6319 L 289.455,437.1774 L 291.0546,437.6929 L 292.6125,438.1787 L 294.1308,438.6302 L 295.6114,439.0477 L 297.0561,439.4387 L 298.4666,439.8043 L 299.8446,440.1458 L 301.1914,440.4566 L 302.5085,440.7477 L 303.7972,441.0207 L 305.0587,441.2772 L 306.2939,441.5163 L 307.5042,441.741 L 308.6904,441.9558 L 309.8534,442.162 L 310.9942,442.361 L 312.1136,442.5531 L 313.2124,442.7422 L 314.2913,442.9294 L 315.3511,443.1155 L 316.3923,443.302 L 317.4157,443.4902 L 318.4218,443.6805 L 319.4113,443.8735 L 320.3846,444.0696 L 321.3423,444.2704 L 322.2848,444.4748 L 323.2127,444.6827 L 324.1264,444.8941 L 325.0263,445.1094 L 325.9128,445.3279 L 326.7863,445.5486 L 327.6472,445.771 L 328.4959,445.9948 L 329.3327,446.2192 L 330.1579,446.4431 L 330.9719,446.666 L 331.7749,446.8874 L 332.5672,447.1057 L 333.3492,447.3203 L 334.121,447.531 L 334.8829,447.7374 L 335.6353,447.9384 L 336.3783,448.132 L 337.1121,448.3196 L 337.8371,448.5009 L 338.5533,448.6756 L 339.261,448.8414 L 339.9604,448.9995 L 340.6518,449.1505 L 341.3352,449.2947 L 342.0109,449.4312 L 342.679,449.5591 L 343.3397,449.6807 L 343.9931,449.7962 L 344.6395,449.9059 L 345.279,450.0086 L 345.9117,450.1062 L 346.5377,450.1995 L 347.1572,450.2889 L 347.7704,450.3744 L 348.3773,450.4564 L 348.9781,450.5361"
             style="fill:none;stroke:#000000;stroke-width:5.07809496;stroke-linecap:round;stroke-linejoin:round;stroke-miterlimit:4;stroke-opacity:1;stroke-dasharray:none"
             id="path3598" />
        </g>
        <g
           id="g3600"
           transform="matrix(1,0,0,-1,0,504)"
           style="stroke-width:5.07809496;stroke-miterlimit:4;stroke-dasharray:none">
          <path
             inkscape:connector-curvature="0"
             d="M 348.9781,450.5361 L 349.573,450.614 L 350.1619,450.6903 L 350.7451,450.7653 L 351.3227,450.8396 L 351.8947,450.9137 L 352.4613,450.9877 L 353.0225,451.0618 L 353.5785,451.1363 L 354.1294,451.2112 L 354.6753,451.2865 L 355.2162,451.3622 L 355.7522,451.4383 L 356.2834,451.5144 L 356.81,451.5905 L 357.332,451.6662 L 357.8494,451.7412 L 358.3624,451.8149 L 358.871,451.8872 L 359.3754,451.9577 L 359.8755,452.0261 L 360.3714,452.0909 L 360.8632,452.1525 L 361.351,452.2106 L 361.8349,452.2648 L 362.3149,452.314 L 362.791,452.3574 L 363.2634,452.3958 L 363.7321,452.4289 L 364.1971,452.4564 L 364.6585,452.4758 L 365.1164,452.4892 L 365.5707,452.4964 L 366.0217,452.4975 L 366.4692,452.491 L 366.9135,452.4772 L 367.3544,452.4573 L 367.7921,452.4316 L 368.2267,452.3998 L 368.6581,452.3605 L 369.0863,452.3162 L 369.5116,452.267 L 369.9338,452.2133 L 370.3531,452.1544 L 370.7694,452.0915 L 371.1828,452.0255 L 371.5934,451.9567 L 372.0012,451.8854 L 372.4062,451.812 L 372.8085,451.7374 L 373.2081,451.6622 L 373.6051,451.5866 L 373.9994,451.5112 L 374.3911,451.4367 L 374.7803,451.3633 L 375.167,451.2914 L 375.5511,451.2213 L 375.9328,451.1541 L 376.3121,451.0895 L 376.689,451.0275 L 377.0635,450.9684 L 377.4357,450.9132 L 377.8055,450.8617 L 378.1731,450.8136 L 378.5385,450.7689 L 378.9016,450.7281 L 379.2625,450.6919 L 379.6212,450.6593 L 379.9778,450.6303 L 380.3323,450.6049 L 380.6847,450.5842 L 381.035,450.5674 L 381.3833,450.5541 L 381.7296,450.5443 L 382.0739,450.5386 L 382.4161,450.5374 L 382.7565,450.5397 L 383.0948,450.5456 L 383.4313,450.5551 L 383.766,450.5694 L 384.0987,450.5876 L 384.4296,450.6095 L 384.7586,450.6352 L 385.0859,450.6652 L 385.4114,450.7 L 385.7351,450.7387 L 386.0571,450.7812 L 386.3773,450.8276 L 386.6958,450.8794 L 387.0127,450.9351 L 387.3278,450.9946 L 387.6413,451.0578 L 387.9532,451.1253 L 388.2634,451.1971 L 388.5721,451.2721 L 388.8791,451.3502 L 389.1846,451.4313 L 389.4885,451.5161 L 389.7909,451.6032 L 390.0917,451.6924 L 390.3911,451.7834"
             style="fill:none;stroke:#000000;stroke-width:5.07809496;stroke-linecap:round;stroke-linejoin:round;stroke-miterlimit:4;stroke-opacity:1;stroke-dasharray:none"
             id="path3602" />
        </g>
        <g
           id="g3604"
           transform="matrix(1,0,0,-1,0,504)"
           style="stroke-width:5.07809496;stroke-miterlimit:4;stroke-dasharray:none">
          <path
             inkscape:connector-curvature="0"
             d="M 390.3911,451.7834 L 390.6889,451.8762 L 390.9853,451.9702 L 391.2802,452.0649 L 391.5737,452.1601 L 391.8657,452.2553 L 392.1563,452.3502 L 392.4455,452.4442 L 392.7333,452.5372 L 393.0197,452.6289 L 393.3047,452.7187 L 393.5884,452.8062 L 393.8708,452.8914 L 394.1518,452.9743 L 394.4315,453.0546 L 394.7099,453.131 L 394.987,453.2044 L 395.2628,453.2748 L 395.5374,453.3421 L 395.8106,453.4054 L 396.0827,453.465 L 396.3535,453.5213 L 396.6231,453.5744 L 396.8914,453.6241 L 397.1586,453.6696 L 397.4246,453.7122 L 397.6894,453.7517 L 397.953,453.7884 L 398.2155,453.8216 L 398.4768,453.8519 L 398.737,453.8797 L 398.9961,453.9052 L 399.254,453.9283 L 399.5108,453.9486 L 399.7665,453.9672 L 400.0212,453.9839 L 400.2747,453.999 L 400.5272,454.0121 L 400.7786,454.0238 L 401.029,454.0342 L 401.2783,454.0435 L 401.5265,454.0516 L 401.7738,454.0586 L 402.02,454.0647 L 402.2652,454.0702 L 402.5094,454.0749 L 402.7526,454.0789 L 402.9948,454.0823 L 403.2361,454.0853 L 403.4763,454.0879 L 403.7157,454.0901 L 403.954,454.0919 L 404.1914,454.0934 L 404.4279,454.0948 L 404.6634,454.0959 L 404.898,454.0969 L 405.1317,454.0977 L 405.3645,454.0983 L 405.5963,454.0989 L 405.8273,454.0993 L 406.0574,454.0997 L 406.2866,454.1 L 406.5149,454.1003 L 406.7423,454.1005 L 406.9689,454.1006 L 407.1947,454.1008 L 407.4195,454.1009 L 407.6436,454.101 L 407.8668,454.101 L 408.0891,454.1011 L 408.3107,454.1012 L 408.5314,454.1012 L 408.7513,454.1012 L 408.9704,454.1013 L 409.1887,454.1013 L 409.4062,454.1013 L 409.6229,454.1013 L 409.8388,454.1013 L 410.0539,454.1013 L 410.2683,454.1013 L 410.4819,454.1013 L 410.6947,454.1013 L 410.9068,454.1013 L 411.1182,454.1013 L 411.3287,454.1013 L 411.5386,454.1013 L 411.7477,454.1013 L 411.9561,454.1013 L 412.1637,454.1013 L 412.3707,454.1013 L 412.5769,454.1013 L 412.7824,454.1013 L 412.9872,454.1013 L 413.1913,454.1013 L 413.3947,454.1013 L 413.5974,454.1013 L 413.7995,454.1013 L 414.0008,454.1013 L 414.2015,454.1013 L 414.4015,454.1013 L 414.6008,454.1013"
             style="fill:none;stroke:#000000;stroke-width:5.07809496;stroke-linecap:round;stroke-linejoin:round;stroke-miterlimit:4;stroke-opacity:1;stroke-dasharray:none"
             id="path3606" />
        </g>
        <g
           id="g3608"
           transform="matrix(1,0,0,-1,0,504)"
           style="stroke-width:5.07809496;stroke-miterlimit:4;stroke-dasharray:none">
          <path
             inkscape:connector-curvature="0"
             d="M 414.6008,454.1013 L 414.7995,454.1013 L 414.9975,454.1013 L 415.1948,454.1013 L 415.3915,454.1013 L 415.5876,454.1013 L 415.783,454.1013 L 415.9778,454.1013 L 416.1719,454.1013 L 416.3654,454.1013 L 416.5583,454.1013 L 416.7506,454.1013 L 416.9422,454.1013 L 417.1332,454.1013 L 417.3237,454.1013 L 417.5135,454.1013 L 417.7027,454.1013 L 417.8913,454.1013 L 418.0793,454.1012 L 418.2668,454.1012 L 418.4536,454.1012 L 418.6399,454.1011 L 418.8256,454.1011 L 419.0107,454.101 L 419.1952,454.1009 L 419.3792,454.1008 L 419.5626,454.1007 L 419.7454,454.1005 L 419.9277,454.1003 L 420.1094,454.1001 L 420.2906,454.0998 L 420.4712,454.0995 L 420.6512,454.099 L 420.8308,454.0985 L 421.0098,454.0979 L 421.1882,454.0972 L 421.3662,454.0963 L 421.5436,454.0952 L 421.7205,454.094 L 421.8968,454.0925 L 422.0726,454.0908 L 422.2479,454.0887 L 422.4227,454.0863 L 422.597,454.0835 L 422.7708,454.0803 L 422.9441,454.0764 L 423.1169,454.072 L 423.2891,454.0669 L 423.4609,454.0612 L 423.6322,454.0544 L 423.803,454.0467 L 423.9733,454.038 L 424.1431,454.0282 L 424.3125,454.017 L 424.4814,454.0042 L 424.6497,453.9901 L 424.8176,453.9743 L 424.9851,453.9569 L 425.152,453.9369 L 425.3185,453.915 L 425.4846,453.891 L 425.6502,453.8647 L 425.8153,453.8357 L 425.98,453.8037 L 426.1442,453.7691 L 426.308,453.7319 L 426.4713,453.6918 L 426.6341,453.6479 L 426.7966,453.601 L 426.9586,453.5512 L 427.1201,453.4985 L 427.2812,453.4422 L 427.4419,453.3825 L 427.6021,453.32 L 427.7619,453.2549 L 427.9213,453.1871 L 428.0803,453.116 L 428.2388,453.0429 L 428.3969,452.9679 L 428.5547,452.8912 L 428.7119,452.8128 L 428.8688,452.7334 L 429.0253,452.6535 L 429.1813,452.5735 L 429.337,452.4936 L 429.4922,452.4147 L 429.6471,452.3371 L 429.8015,452.2613 L 429.9555,452.1875 L 430.1092,452.1172 L 430.2624,452.0504 L 430.4153,451.9874 L 430.5677,451.9284 L 430.7198,451.8743 L 430.8715,451.8267 L 431.0228,451.7845 L 431.1737,451.7478 L 431.3243,451.7171 L 431.4744,451.6944 L 431.6242,451.6787 L 431.7736,451.6695"
             style="fill:none;stroke:#000000;stroke-width:5.07809496;stroke-linecap:round;stroke-linejoin:round;stroke-miterlimit:4;stroke-opacity:1;stroke-dasharray:none"
             id="path3610" />
        </g>
        <g
           id="g3612"
           transform="matrix(1,0,0,-1,0,504)"
           style="stroke-width:5.07809496;stroke-miterlimit:4;stroke-dasharray:none">
          <path
             inkscape:connector-curvature="0"
             d="M 431.7736,451.6695 L 431.9227,451.6668 L 432.0713,451.6715 L 432.2196,451.6845 L 432.3676,451.704 L 432.5151,451.7297 L 432.6623,451.7615 L 432.8091,451.8012 L 432.9556,451.8466 L 433.1017,451.8971 L 433.2475,451.9525 L 433.3929,452.0129 L 433.538,452.0782 L 433.6826,452.1469 L 433.827,452.2185 L 433.971,452.2927 L 434.1147,452.3696 L 434.258,452.4479 L 434.4009,452.5273 L 434.5435,452.6072 L 434.6858,452.6873 L 434.8278,452.767 L 434.9694,452.8459 L 435.1107,452.9237 L 435.2516,453.0001 L 435.3922,453.0741 L 435.5325,453.1461 L 435.6724,453.2157 L 435.812,453.283 L 435.9513,453.3471 L 436.0903,453.408 L 436.2289,453.4659 L 436.3672,453.5211 L 436.5053,453.5732 L 436.6429,453.6213 L 436.7803,453.6665 L 436.9174,453.7088 L 437.0541,453.7483 L 437.1906,453.7844 L 437.3267,453.8174 L 437.4625,453.848 L 437.598,453.8761 L 437.7332,453.9018 L 437.868,453.9246 L 438.0026,453.9453 L 438.1369,453.9642 L 438.2708,453.9814 L 438.4045,453.9964 L 438.5379,454.0097 L 438.671,454.0217 L 438.8038,454.0325 L 438.9362,454.042 L 439.0685,454.05 L 439.2003,454.0573 L 439.332,454.0636 L 439.4633,454.0692 L 439.5943,454.074"
             style="fill:none;stroke:#000000;stroke-width:5.07809496;stroke-linecap:round;stroke-linejoin:round;stroke-miterlimit:4;stroke-opacity:1;stroke-dasharray:none"
             id="path3614" />
        </g>
      </g>
    </g>
    <g
       id="g6757"
       transform="matrix(1.25,0,0,-1.25,512.28901,891.05296)">
      <g
         style="stroke-width:2.53904748;stroke-miterlimit:4;stroke-dasharray:none"
         transform="matrix(0.15753939,0,0,-0.15753939,-87.903275,331.11084)"
         id="g3060">
        <path
           inkscape:connector-curvature="0"
           id="path3062"
           style="fill:none;stroke:#000000;stroke-width:2.53904748;stroke-linecap:round;stroke-linejoin:round;stroke-miterlimit:4;stroke-opacity:1;stroke-dasharray:none"
           d="M 55.45067,77.5296 L 467.5573,77.5296" />
      </g>
      <g
         transform="matrix(1,0,0,0.33844748,0,219.86074)"
         id="g6585">
        <g
           id="g3068"
           transform="matrix(0.15753939,0,0,-1.4436259,-87.903275,411.52064)"
           style="stroke-width:0.83876067;stroke-miterlimit:4;stroke-dasharray:none">
          <path
             d="M 151.4674,77.5296 L 151.4674,82.28162"
             style="fill:none;stroke:#000000;stroke-width:0.83876067;stroke-linecap:round;stroke-linejoin:round;stroke-miterlimit:4;stroke-opacity:1;stroke-dasharray:none"
             id="path3070"
             inkscape:connector-curvature="0" />
        </g>
        <g
           id="g3076"
           transform="matrix(0.15753939,0,0,-1.4436259,-87.903275,411.52064)"
           style="stroke-width:0.83876067;stroke-miterlimit:4;stroke-dasharray:none">
          <path
             d="M 288.8363,77.5296 L 288.8363,82.28162"
             style="fill:none;stroke:#000000;stroke-width:0.83876067;stroke-linecap:round;stroke-linejoin:round;stroke-miterlimit:4;stroke-opacity:1;stroke-dasharray:none"
             id="path3078"
             inkscape:connector-curvature="0" />
        </g>
        <g
           id="g3084"
           transform="matrix(0.15753939,0,0,-1.4436259,-87.903275,411.52064)"
           style="stroke-width:0.83876067;stroke-miterlimit:4;stroke-dasharray:none">
          <path
             d="M 426.2052,77.5296 L 426.2052,82.28162"
             style="fill:none;stroke:#000000;stroke-width:0.83876067;stroke-linecap:round;stroke-linejoin:round;stroke-miterlimit:4;stroke-opacity:1;stroke-dasharray:none"
             id="path3086"
             inkscape:connector-curvature="0" />
        </g>
      </g>
      <g
         transform="matrix(1,0,0,0.51887089,0,167.04418)"
         id="g6593">
        <g
           id="g3064"
           transform="matrix(0.15753939,0,0,-1.4436259,-87.903275,411.52064)"
           style="stroke-width:0.83876067;stroke-miterlimit:4;stroke-dasharray:none">
          <path
             d="M 55.45067,77.5296 L 55.45067,82.28162"
             style="fill:none;stroke:#000000;stroke-width:0.83876067;stroke-linecap:round;stroke-linejoin:round;stroke-miterlimit:4;stroke-opacity:1;stroke-dasharray:none"
             id="path3066"
             inkscape:connector-curvature="0" />
        </g>
        <g
           id="g3072"
           transform="matrix(0.15753939,0,0,-1.4436259,-87.903275,411.52064)"
           style="stroke-width:0.83876067;stroke-miterlimit:4;stroke-dasharray:none">
          <path
             d="M 192.8195,77.5296 L 192.8195,82.28162"
             style="fill:none;stroke:#000000;stroke-width:0.83876067;stroke-linecap:round;stroke-linejoin:round;stroke-miterlimit:4;stroke-opacity:1;stroke-dasharray:none"
             id="path3074"
             inkscape:connector-curvature="0" />
        </g>
        <g
           id="g3080"
           transform="matrix(0.15753939,0,0,-1.4436259,-87.903275,411.52064)"
           style="stroke-width:0.83876067;stroke-miterlimit:4;stroke-dasharray:none">
          <path
             d="M 330.1884,77.5296 L 330.1884,82.28162"
             style="fill:none;stroke:#000000;stroke-width:0.83876067;stroke-linecap:round;stroke-linejoin:round;stroke-miterlimit:4;stroke-opacity:1;stroke-dasharray:none"
             id="path3082"
             inkscape:connector-curvature="0" />
        </g>
        <g
           id="g3088"
           transform="matrix(0.15753939,0,0,-1.4436259,-87.903275,411.52064)"
           style="stroke-width:0.83876067;stroke-miterlimit:4;stroke-dasharray:none">
          <path
             d="M 467.5573,77.5296 L 467.5573,82.28162"
             style="fill:none;stroke:#000000;stroke-width:0.83876067;stroke-linecap:round;stroke-linejoin:round;stroke-miterlimit:4;stroke-opacity:1;stroke-dasharray:none"
             id="path3090"
             inkscape:connector-curvature="0" />
        </g>
      </g>
      <text
         transform="scale(1,-1)"
         sodipodi:linespacing="125%"
         id="text6527"
         y="-312.63977"
         x="-35.355335"
         style="font-size:9.60000038px;font-style:normal;font-variant:normal;font-weight:normal;font-stretch:normal;text-align:center;line-height:125%;letter-spacing:0px;word-spacing:0px;text-anchor:middle;fill:#000000;fill-opacity:1;stroke:none;font-family:Sans;-inkscape-font-specification:Helvetica"
         xml:space="preserve"><tspan
           style="font-size:6.4000001px"
           y="-312.63977"
           x="-35.355335"
           id="tspan6529"
           sodipodi:role="line">10</tspan></text>
      <text
         xml:space="preserve"
         style="font-size:9.60000038px;font-style:normal;font-variant:normal;font-weight:normal;font-stretch:normal;text-align:center;line-height:125%;letter-spacing:0px;word-spacing:0px;text-anchor:middle;fill:#000000;fill-opacity:1;stroke:none;font-family:Sans;-inkscape-font-specification:Helvetica"
         x="-14.696759"
         y="-312.63977"
         id="text6531"
         sodipodi:linespacing="125%"
         transform="scale(1,-1)"><tspan
           sodipodi:role="line"
           id="tspan6533"
           x="-14.696759"
           y="-312.63977"
           style="font-size:6.4000001px">100</tspan></text>
      <text
         xml:space="preserve"
         style="font-size:9.60000038px;font-style:normal;font-variant:normal;font-weight:normal;font-stretch:normal;text-align:center;line-height:125%;letter-spacing:0px;word-spacing:0px;text-anchor:middle;fill:#000000;fill-opacity:1;stroke:none;font-family:Sans;-inkscape-font-specification:Helvetica"
         x="-56.721016"
         y="-312.63977"
         id="text6535"
         sodipodi:linespacing="125%"
         transform="scale(1,-1)"><tspan
           sodipodi:role="line"
           id="tspan6537"
           x="-56.721016"
           y="-312.63977"
           style="font-size:6.4000001px">1</tspan></text>
      <text
         transform="scale(1,-1)"
         sodipodi:linespacing="125%"
         id="text6539"
         y="-312.63977"
         x="-79.12101"
         style="font-size:9.60000038px;font-style:normal;font-variant:normal;font-weight:normal;font-stretch:normal;text-align:center;line-height:125%;letter-spacing:0px;word-spacing:0px;text-anchor:middle;fill:#000000;fill-opacity:1;stroke:none;font-family:Sans;-inkscape-font-specification:Helvetica"
         xml:space="preserve"><tspan
           style="font-size:6.4000001px"
           y="-312.63977"
           x="-79.12101"
           id="tspan6541"
           sodipodi:role="line">0.1</tspan></text>
    </g>
  </g>
</svg>
